<svg xmlns="http://www.w3.org/2000/svg" xmlns:xlink="http://www.w3.org/1999/xlink" version="1.1" x="0px" y="0px" viewBox="0 0 100 125" enable-background="new 0 0 100 100" xml:space="preserve"><g><defs><path id="c" d="M41.89,63.716c0-9.893-8.118-18.009-18.01-18.009c-10.091,0-18.248,8.078-18.248,18.009    c0,10.131,8.117,18.248,18.248,18.248C33.812,81.964,41.89,73.807,41.89,63.716z M39.743,63.716    c0,8.91-7.122,16.102-15.863,16.102c-8.945,0-16.101-7.156-16.101-16.102c0-8.741,7.191-15.863,16.101-15.863    C32.586,47.853,39.743,55.01,39.743,63.716z"/></defs><use xlink:href="#c" overflow="visible"/><clipPath><use xlink:href="#c" overflow="visible"/></clipPath></g><g><defs><path id="b" d="M94.368,63.716c0-9.893-8.116-18.009-18.009-18.009c-10.092,0-18.248,8.078-18.248,18.009    c0,10.131,8.117,18.248,18.248,18.248C86.291,81.964,94.368,73.808,94.368,63.716z M92.222,63.716    c0,8.911-7.122,16.102-15.863,16.102c-8.945,0-16.102-7.156-16.102-16.102c0-8.741,7.191-15.863,16.102-15.863    C85.066,47.853,92.222,55.009,92.222,63.716z"/></defs><use xlink:href="#b" overflow="visible"/><clipPath><use xlink:href="#b" overflow="visible"/></clipPath></g><g><defs><path id="a" d="M57.156,65.607c-0.058-3.738-3.116-6.781-6.798-6.781c-3.878,0-6.98,3-7.037,6.782    c-0.009,0.593,0.464,1.081,1.057,1.09c0.593,0.008,1.08-0.465,1.089-1.057c0.04-2.6,2.176-4.667,4.89-4.667    c2.504,0,4.611,2.098,4.651,4.668c0.009,0.592,0.497,1.066,1.09,1.057C56.692,66.688,57.165,66.2,57.156,65.607z"/></defs><use xlink:href="#a" overflow="visible"/><clipPath><use xlink:href="#a" overflow="visible"/></clipPath></g><path d="M40.959,38.025l-5.869-7.824h4.294c0.85,0,1.362-0.939,0.903-1.653l-6.44-10.019c-0.321-0.499-0.985-0.643-1.483-0.322  c-0.499,0.32-0.644,0.984-0.323,1.483l5.378,8.365h-4.475c-0.884,0-1.389,1.01-0.859,1.717l7.156,9.542  c0.356,0.474,1.029,0.57,1.503,0.215C41.219,39.172,41.315,38.5,40.959,38.025z"/><text x="0" y="115" fill="#000000" font-size="5px" font-weight="bold" font-family="'Helvetica Neue', Helvetica, Arial-Unicode, Arial, Sans-serif"></text><text x="0" y="120" fill="#000000" font-size="5px" font-weight="bold" font-family="'Helvetica Neue', Helvetica, Arial-Unicode, Arial, Sans-serif"></text></svg>